<svg xmlns="http://www.w3.org/2000/svg" viewBox="0 0 126.61 126.61"><defs><style>.cls-1{fill:#f3ba2f;}</style></defs><g><g><path class="cls-1" d="M38.72,53.2,63.31,28.62,87.91,53.2,100.7,40.4,63.31,3,25.93,40.4Zm0,0"></path><path class="cls-1" d="M3.22,63.31,16,50.51,28.82,63.31,16,76.09Zm0,0"></path><path class="cls-1" d="M38.72,73.41,63.31,98l24.6-24.59L100.7,86.19h0L63.31,123.58,25.93,86.19h0Zm0,0"></path><path class="cls-1" d="M97.79,63.31,110.59,50.52l12.8,12.79-12.8,12.8Zm0,0"></path><path class="cls-1" d="M63.31,53.91,52.35,64.86H52.34l-.71.71-.32.33-2.31,2.31,14.3,14.32,14.32-14.32L67.98,58.57,63.31,53.9Zm0,0"></path></g></g></svg>