<svg xmlns="http://www.w3.org/2000/svg" viewBox="0 0 32 32"><path d="M16 32C7.163 32 0 24.837 0 16S7.163 0 16 0s16 7.163 16 16-7.163 16-16 16zm-.066-26.737c-.53.01-1.05.055-1.56.134-1.263.193-2.477.634-3.582 1.286-1.121.657-2.116 1.515-2.942 2.542a9.05 9.05 0 0 0-1.272 2.117c-.31.682-.53 1.393-.647 2.128-.135.788-.152 1.591-.065 2.386.088.912.31 1.8.662 2.636a9.572 9.572 0 0 0 1.758 2.75 9.462 9.462 0 0 0 2.508 1.958c.846.46 1.758.797 2.702.995.945.203 1.92.244 2.878.125a9.925 9.925 0 0 0 2.762-.747 9.961 9.961 0 0 0 2.393-1.495c.722-.59 1.36-1.286 1.883-2.07a10.11 10.11 0 0 0 1.295-2.698c.302-.97.439-1.993.408-3.012-.03-.982-.197-1.96-.51-2.89a9.848 9.848 0 0 0-1.321-2.615c-.59-.884-1.317-1.67-2.154-2.33-.846-.663-1.798-1.182-2.822-1.53a10.564 10.564 0 0 0-3.374-.569zm-1.468 7.704c.162-.125.368-.168.562-.11.266.074.457.337.457.62v.073c.59-.1.132-.017.198-.017 1.35 0 2.443 1.09 2.443 2.444a2.446 2.446 0 0 1-2.647 2.442c-.081 0-.162-.007-.241-.02v.423a.697.697 0 0 1-.457.652.571.571 0 0 1-.591-.11.62.62 0 0 1-.213-.542v-5.318c0-.19.081-.381.206-.532.059-.058.13-.106.21-.132.027-.7.046-.15.073-.022v.149zm1.217 2.553v-.013c0-.383-.31-.684-.683-.684-.043 0-.087.004-.132.017v1.343a.608.608 0 0 0 .132.013c.373 0 .683-.302.683-.676zm-4.915.243c.03-.177.125-.324.26-.413.074-.051.162-.08.251-.08.044 0 .088.007.125.023a.47.47 0 0 1 .266.248l.043.103c.309-.337.751-.551 1.235-.551a1.615 1.615 0 0 1 1.184.508l-.542.723a.99.99 0 0 0-.642-.234c-.546 0-.977.45-.977 1.02v1.708h-1.23c.008-.125.03-.249.03-.374v-2.18c0-.162-.016-.33-.03-.492l.027-.009z" fill="#5791aa"/></svg>