<svg xmlns="http://www.w3.org/2000/svg" viewBox="0 0 510 510"><defs><style>.cls-1{fill:#0093dd;}</style></defs><path class="cls-1" d="M158.26,389.89h-50.7a9.9,9.9,0,0,1-8.37-15.19l98.76-142.49a9.85,9.85,0,0,1,8.38-4.61h50.7a9.9,9.9,0,0,1,8.37,15.19L166.64,385.28A9.86,9.86,0,0,1,158.26,389.89Z"/><path class="cls-1" d="M256.18,282.62h0a25.48,25.48,0,0,1-25.49-25.49h0a25.47,25.47,0,0,1,25.49-25.47h0a25.47,25.47,0,0,1,25.49,25.47h0A25.48,25.48,0,0,1,256.18,282.62Z"/><path class="cls-1" d="M353.93,389.89h50.69a9.9,9.9,0,0,0,8.38-15.19L313.55,232.21a9.85,9.85,0,0,0-8.38-4.61H254.48a9.9,9.9,0,0,0-8.38,15.19l99.45,142.49A9.86,9.86,0,0,0,353.93,389.89Z"/><path class="cls-1" d="M353.93,120.11h50.69a9.9,9.9,0,0,1,8.38,15.19L313.55,277.79a9.85,9.85,0,0,1-8.38,4.61H254.48a9.9,9.9,0,0,1-8.38-15.19l99.45-142.49A9.87,9.87,0,0,1,353.93,120.11Z"/><path class="cls-1" d="M158.26,120.11h-50.7a9.9,9.9,0,0,0-8.37,15.19l98.76,142.49a9.85,9.85,0,0,0,8.38,4.61h50.7a9.9,9.9,0,0,0,8.37-15.19L166.64,124.72A9.86,9.86,0,0,0,158.26,120.11Z"/></svg>