<svg xmlns="http://www.w3.org/2000/svg" viewBox="0 0 182 182" xml:space="preserve"><style>.st0{fill:#000000}</style><path class="st0" d="M60.72 40.93c10.93 0 19.8 8.87 19.8 19.8s-8.87 19.8-19.8 19.8-19.8-8.87-19.8-19.8 8.87-19.8 19.8-19.8zM121.29 101.5c10.93 0 19.8 8.87 19.8 19.8s-8.87 19.8-19.8 19.8-19.8-8.87-19.8-19.8 8.87-19.8 19.8-19.8zM121.29 40.93c10.93 0 19.8 8.87 19.8 19.8s-8.87 19.8-19.8 19.8-19.8-8.87-19.8-19.8 8.87-19.8 19.8-19.8zM60.72 101.5c10.93 0 19.8 8.87 19.8 19.8s-8.87 19.8-19.8 19.8-19.8-8.87-19.8-19.8 8.87-19.8 19.8-19.8z"/></svg>